<?xml version="1.0" standalone="no"?>
<!DOCTYPE svg PUBLIC "-//W3C//DTD SVG 20010904//EN"
 "http://www.w3.org/TR/2001/REC-SVG-20010904/DTD/svg10.dtd">
<svg version="1.0" xmlns="http://www.w3.org/2000/svg"
 width="257.000000pt" height="257.000000pt" viewBox="0 0 257.000000 257.000000"
 preserveAspectRatio="xMidYMid meet">

<g transform="translate(0.000000,257.000000) scale(0.100000,-0.100000)"
fill="#000000" stroke="none">
<path d="M0 2514 c0 -53 1 -56 23 -51 12 3 69 11 127 17 58 5 123 13 145 16
l40 5 -43 -20 c-23 -11 -58 -23 -77 -27 -59 -11 -82 -37 -110 -125 -14 -44
-25 -100 -25 -124 0 -47 -17 -65 -59 -65 l-21 0 0 -1070 0 -1070 500 0 500 1
22 22 c39 38 317 174 386 188 61 13 63 13 88 -12 31 -31 57 -140 42 -178 -7
-21 -7 -22 7 -11 10 8 15 9 15 1 0 -8 138 -11 505 -11 278 0 505 2 505 4 0 2
-11 51 -24 108 -21 86 -66 322 -66 342 0 3 20 6 45 6 l45 0 0 95 0 95 -54 0
-54 0 -9 52 c-5 29 -9 54 -8 56 1 1 24 4 51 6 27 2 55 4 62 5 9 1 12 30 12
111 l0 110 -70 0 c-48 0 -72 4 -75 13 -2 6 -6 44 -10 84 l-6 72 78 3 c65 3 78
6 81 21 3 16 -4 17 -82 11 l-86 -7 0 52 c0 51 0 51 33 51 61 0 137 13 137 23
0 6 -33 8 -90 5 l-90 -5 -4 31 c-3 17 -7 46 -9 64 l-4 32 52 0 c90 0 145 11
145 29 0 9 -34 48 -77 88 l-78 72 65 1 c61 0 102 12 89 25 -4 3 -43 1 -88 -4
-80 -9 -82 -8 -110 18 -24 22 -32 46 -59 167 -17 77 -36 153 -42 169 -6 15 -9
29 -8 30 2 2 62 8 133 14 143 13 175 19 175 33 0 6 -21 7 -52 3 -29 -3 -101
-9 -159 -13 l-107 -7 -17 55 c-9 30 -34 92 -55 137 l-38 81 32 7 c17 3 56 10
86 15 45 7 39 8 -36 4 l-91 -5 -57 83 c-30 46 -64 93 -75 106 l-19 22 -991 0
-991 0 0 -56z m755 -591 c14 -21 25 -41 25 -45 0 -11 -28 -10 -35 2 -4 6 1 7
11 3 14 -5 15 -3 4 17 -10 18 -14 20 -22 9 -7 -10 -7 -8 -3 9 4 13 2 22 -4 22
-6 0 -11 5 -11 10 0 18 9 11 35 -27z m146 -8 l10 -20 -16 20 c-9 11 -21 19
-26 18 -11 -3 -12 11 -2 20 7 7 16 -3 34 -38z m64 25 c3 -6 -1 -7 -9 -4 -18 7
-21 14 -7 14 6 0 13 -4 16 -10z m-157 -35 c-3 -3 -9 2 -12 12 -6 14 -5 15 5 6
7 -7 10 -15 7 -18z m-148 5 c0 -5 -4 -10 -10 -10 -5 0 -10 5 -10 10 0 6 5 10
10 10 6 0 10 -4 10 -10z m190 -35 c0 -11 -29 -11 -33 -1 -4 10 1 12 14 9 10
-3 19 -7 19 -8z m75 5 c3 -5 1 -10 -4 -10 -6 0 -11 5 -11 10 0 6 2 10 4 10 3
0 8 -4 11 -10z m-28 -6 c-3 -3 -12 -4 -19 -1 -8 3 -5 6 6 6 11 1 17 -2 13 -5z
m-39 -298 c23 -35 83 -103 134 -151 51 -49 88 -90 83 -92 -6 -2 -25 -12 -43
-23 -39 -24 -34 -47 6 -26 63 32 87 30 149 -12 32 -22 87 -54 123 -71 l65 -32
-52 4 c-29 2 -53 0 -53 -4 0 -5 -6 -6 -12 -4 -7 3 -26 1 -43 -4 -16 -5 -24
-10 -16 -10 8 -1 -5 -15 -27 -31 -43 -31 -53 -44 -27 -34 11 5 15 -1 15 -21
l0 -27 33 28 c27 22 33 24 35 11 3 -14 7 -15 24 -6 29 16 37 0 11 -21 -22 -17
-22 -20 -8 -53 8 -19 12 -37 9 -40 -10 -10 83 -19 117 -12 39 9 95 63 115 111
14 34 20 35 52 11 10 -8 9 -15 -3 -33 -18 -28 -10 -31 18 -6 20 17 20 16 14
-108 -4 -69 -10 -219 -13 -333 l-7 -209 -51 -37 c-149 -108 -415 -231 -501
-231 -58 0 -151 42 -273 124 -99 67 -147 123 -214 252 -65 126 -151 324 -144
332 3 2 17 -3 31 -12 23 -15 22 -11 -13 41 -39 58 -82 136 -82 149 0 4 12 -3
27 -17 16 -14 37 -32 48 -40 19 -14 19 -13 2 13 -21 34 -22 54 -1 62 26 10 34
7 34 -14 0 -18 3 -19 20 -10 14 7 26 8 38 1 13 -8 14 -10 2 -11 -33 -1 -42
-15 -28 -46 17 -39 37 -53 76 -54 43 0 95 27 88 45 -3 8 0 17 5 21 6 3 8 17 4
31 -4 16 -2 22 5 18 22 -14 8 14 -15 29 -14 9 -24 22 -22 28 3 16 -37 26 -106
27 -32 1 -68 6 -79 12 -15 8 -19 8 -14 0 5 -7 -2 -11 -16 -11 -23 -1 -58 -21
-58 -34 0 -4 9 -2 21 4 33 18 32 6 -2 -19 l-30 -22 3 82 3 83 50 25 c37 18 71
26 132 29 45 2 90 1 100 -4 10 -4 23 -8 29 -9 7 0 29 -23 50 -51 67 -87 104
-129 104 -116 0 7 -11 40 -25 74 -14 34 -25 62 -25 63 0 0 35 -33 78 -75 69
-68 245 -200 287 -217 13 -4 8 9 -15 48 -31 53 -69 131 -176 359 -46 100 -95
243 -93 275 0 5 9 -10 19 -35 25 -59 25 -38 1 39 -10 34 -18 61 -16 61 1 0 21
-29 43 -64z m1615 -62 c26 -23 47 -44 47 -46 0 -2 -15 -2 -32 0 -18 2 -52 -1
-75 -6 -40 -9 -43 -8 -43 10 0 19 5 20 55 16 53 -4 54 -4 39 13 -11 12 -22 16
-31 11 -8 -5 -27 -7 -42 -4 -24 3 -30 10 -35 40 -3 21 -6 45 -6 56 0 19 3 17
123 -90z m-1997 -81 c77 -105 124 -172 124 -176 0 -1 -37 -3 -83 -3 -56 -1
-101 -8 -141 -23 -33 -12 -61 -20 -62 -18 -3 2 5 59 28 211 7 46 13 64 19 55
5 -8 7 -27 4 -44 -2 -16 4 -4 15 29 11 32 17 62 14 67 -3 5 -3 9 -1 9 2 0 40
-48 83 -107z m1234 18 c0 -5 -7 -17 -16 -25 -14 -15 -34 -21 -34 -12 0 2 -3
11 -6 19 -3 10 2 17 13 20 31 8 43 7 43 -2z m-133 -53 c-3 -7 -5 -2 -5 12 0
14 2 19 5 13 2 -7 2 -19 0 -25z m-377 -33 c24 -13 24 -14 4 -15 -12 0 -27 7
-34 15 -16 19 -3 19 30 0z m167 -94 c51 -22 102 -42 115 -45 64 -11 98 -49 98
-107 0 -24 -6 -24 -38 2 -25 20 -25 21 -4 15 12 -4 22 -3 22 2 0 12 -49 22
-106 22 -36 0 -54 8 -111 51 -157 118 -150 137 24 60z m620 -29 c19 -12 41
-85 54 -178 11 -82 10 -86 -15 -137 -14 -29 -46 -72 -71 -97 l-45 -44 0 93 c0
82 2 92 15 81 18 -15 19 -42 3 -58 -16 -16 17 -28 36 -13 33 28 22 103 -21
146 -16 17 -16 17 7 10 14 -4 33 -14 43 -23 9 -8 17 -11 17 -6 0 18 -44 47
-72 48 -19 1 -28 6 -28 17 0 14 5 15 56 2 31 -8 58 -12 61 -10 8 9 -26 115
-44 132 -10 11 -24 14 -39 11 -23 -6 -34 11 -17 27 9 9 45 9 60 -1z m13 -119
c0 -20 -5 -23 -35 -23 -27 0 -35 4 -34 18 0 11 2 12 6 4 7 -17 43 14 43 37 0
14 2 14 10 1 5 -8 10 -25 10 -37z m-685 -104 c-4 13 -3 22 1 19 5 -2 21 -10
36 -17 24 -12 30 -12 46 2 25 23 35 21 21 -4 -8 -15 -8 -19 0 -15 6 4 11 1 11
-7 0 -11 -19 -17 -71 -22 -38 -4 -72 -6 -73 -4 -2 2 -7 20 -11 39 l-7 35 27
-25 27 -25 -7 24z m155 12 c0 -5 -7 -11 -14 -14 -10 -4 -13 -1 -9 9 6 15 23
19 23 5z m-874 -83 c-3 -32 -5 -33 -50 -36 -52 -3 -76 9 -76 40 0 19 1 19 21
-3 l20 -24 -6 23 c-7 25 7 29 25 7 17 -20 27 -19 47 5 23 26 23 26 19 -12z
m1907 -135 c-13 -2 -33 -2 -45 0 -13 2 -3 4 22 4 25 0 35 -2 23 -4z m-2275
-270 c-10 -2 -26 -2 -35 0 -10 3 -2 5 17 5 19 0 27 -2 18 -5z m-110 -10 c-10
-2 -28 -2 -40 0 -13 2 -5 4 17 4 22 1 32 -1 23 -4z m1386 -295 c9 -12 16 -27
16 -33 -1 -5 -7 1 -15 15 -7 14 -24 28 -37 31 -22 7 -22 7 -1 8 12 1 29 -9 37
-21z m-75 8 c-2 -2 -15 -9 -29 -15 -24 -11 -24 -11 -6 3 16 13 49 24 35 12z"/>
<path d="M851 1474 c0 -11 3 -14 6 -6 3 7 2 16 -1 19 -3 4 -6 -2 -5 -13z"/>
<path d="M735 650 c3 -5 8 -10 11 -10 2 0 4 5 4 10 0 6 -5 10 -11 10 -5 0 -7
-4 -4 -10z"/>
<path d="M1075 440 c-3 -5 -2 -10 4 -10 5 0 13 5 16 10 3 6 2 10 -4 10 -5 0
-13 -4 -16 -10z"/>
<path d="M834 425 c11 -8 34 -15 50 -14 26 0 28 2 11 8 -11 4 -33 11 -50 15
-28 6 -29 5 -11 -9z"/>
<path d="M1018 423 c7 -3 16 -2 19 1 4 3 -2 6 -13 5 -11 0 -14 -3 -6 -6z"/>
<path d="M2000 985 c-7 -9 -11 -18 -8 -20 3 -3 11 1 18 10 7 9 11 18 8 20 -3
3 -11 -1 -18 -10z"/>
<path d="M2363 2373 c9 -2 23 -2 30 0 6 3 -1 5 -18 5 -16 0 -22 -2 -12 -5z"/>
</g>
</svg>
