<svg id="svg" xmlns="http://www.w3.org/2000/svg" xmlns:xlink="http://www.w3.org/1999/xlink" width="400" height="400" viewBox="0, 0, 400,400"><g id="svgg"><path id="path0" d="M209.600 205.392 C 209.600 205.914,211.774 212.938,213.644 218.458 C 216.380 226.535,216.227 229.264,212.591 237.200 C 211.432 239.730,208.107 247.200,205.202 253.800 C 194.985 277.017,198.265 274.228,167.172 286.122 C 147.426 293.674,148.824 293.614,134.800 287.512 C 100.229 272.469,101.041 273.067,95.205 258.400 C 94.811 257.410,93.774 255.070,92.902 253.200 C 92.029 251.330,90.440 247.845,89.372 245.457 C 86.990 240.132,86.848 240.384,88.369 247.234 C 91.898 263.131,90.973 267.180,82.000 275.105 C 73.336 282.757,68.245 280.069,61.345 264.200 C 58.422 257.476,60.771 268.663,63.997 276.828 C 86.746 334.399,158.723 355.909,211.243 320.832 C 235.906 304.360,248.722 283.458,257.003 246.200 C 257.540 243.780,258.798 238.200,259.797 233.800 C 261.842 224.792,262.562 221.364,263.201 217.600 C 263.443 216.170,263.722 214.640,263.821 214.200 C 264.037 213.243,263.117 215.149,260.663 220.743 C 255.034 233.575,251.879 235.690,241.800 233.388 C 239.380 232.835,235.600 232.007,233.400 231.547 C 223.801 229.543,221.750 227.440,212.575 210.200 C 210.454 206.214,209.600 204.834,209.600 205.392 M299.918 235.900 C 297.432 238.551,282.767 259.159,275.082 270.801 C 262.269 290.211,263.375 291.073,285.053 278.584 C 303.971 267.685,329.200 251.426,324.240 253.329 C 307.628 259.704,300.103 260.322,296.861 255.578 C 294.929 252.752,295.753 248.335,300.345 236.900 C 301.320 234.473,301.300 234.426,299.918 235.900 " stroke="none" fill="#5cf2f2" fill-rule="evenodd"></path><path id="path1" d="M266.400 65.028 C 255.284 67.934,250.618 74.295,245.585 93.400 C 244.020 99.340,241.687 108.070,240.401 112.800 C 239.116 117.530,237.313 124.280,236.395 127.800 C 229.025 156.069,227.932 158.726,223.142 160.016 C 220.031 160.853,218.096 160.086,210.000 154.803 C 152.684 117.404,76.185 147.108,59.608 213.200 C 53.460 237.709,56.799 262.622,67.985 275.705 C 72.431 280.906,75.585 280.770,82.000 275.105 C 91.988 266.283,92.656 258.340,85.302 235.800 C 81.623 224.520,81.638 224.444,93.185 198.435 C 103.189 175.898,101.151 177.802,125.268 168.451 C 153.277 157.591,149.816 157.669,171.800 167.394 C 176.640 169.535,182.850 172.277,185.600 173.487 C 198.011 178.950,199.620 180.625,204.734 193.400 C 208.797 203.551,210.974 207.869,217.945 219.600 C 223.283 228.583,224.793 229.750,233.400 231.547 C 235.600 232.007,239.380 232.835,241.800 233.388 C 252.605 235.856,254.749 234.142,262.333 216.970 C 264.221 212.696,266.270 205.875,271.159 187.600 C 273.130 180.230,277.107 165.380,279.997 154.600 C 282.887 143.820,286.669 129.690,288.401 123.200 C 290.133 116.710,292.449 108.066,293.547 103.992 C 297.609 88.926,297.405 82.885,292.582 75.344 C 287.240 66.994,275.928 62.537,266.400 65.028 M322.129 205.464 C 319.689 205.980,316.582 210.056,306.177 226.400 C 296.123 242.191,293.379 254.373,299.120 257.726 C 305.524 261.466,328.898 253.481,336.926 244.810 C 345.256 235.813,345.247 221.378,336.908 212.370 C 332.471 207.577,326.135 204.617,322.129 205.464 " stroke="none" fill="#ddf4f4" fill-rule="evenodd"></path><path id="path2" d="M0.000 200.000 L 0.000 400.000 200.000 400.000 L 400.000 400.000 400.000 200.000 L 400.000 0.000 200.000 0.000 L 0.000 0.000 0.000 200.000 M281.000 58.001 C 292.924 61.793,300.984 70.705,303.425 82.793 C 304.668 88.948,303.966 94.318,300.002 109.000 C 296.878 120.569,289.375 148.554,287.348 156.200 C 286.356 159.940,283.656 170.020,281.348 178.600 C 279.040 187.180,275.799 199.240,274.145 205.400 C 269.013 224.520,268.405 226.759,265.992 235.400 C 264.703 240.020,262.293 248.840,260.638 255.000 C 251.122 290.414,238.144 309.934,213.322 326.164 C 143.224 372.000,49.195 321.146,49.200 237.402 C 49.207 152.925,141.352 102.924,213.516 148.240 C 222.283 153.745,221.656 154.758,230.609 120.600 C 231.416 117.520,233.053 111.426,234.247 107.058 C 235.442 102.690,237.321 95.670,238.424 91.458 C 241.136 81.102,242.171 78.023,244.347 73.837 C 251.175 60.707,267.428 53.685,281.000 58.001 M322.658 102.039 C 337.690 106.641,346.837 122.042,343.654 137.392 C 342.196 144.423,341.680 145.270,301.646 206.389 C 285.457 231.105,281.507 236.100,278.153 236.100 C 274.055 236.100,275.398 227.689,285.417 190.600 C 286.190 187.740,287.727 181.980,288.833 177.800 C 289.939 173.620,292.442 164.260,294.396 157.000 C 296.349 149.740,299.683 137.320,301.803 129.400 C 307.711 107.330,308.225 105.834,310.718 103.468 C 313.207 101.105,317.808 100.555,322.658 102.039 M146.600 168.372 C 143.925 169.170,142.775 169.602,126.000 176.107 C 106.512 183.665,108.755 181.449,99.593 202.200 C 88.256 227.878,88.239 222.583,99.749 252.541 C 106.466 270.024,104.216 267.914,126.800 277.897 C 150.118 288.204,147.012 287.830,162.000 282.128 C 187.669 272.363,189.779 271.383,192.169 268.121 C 194.282 265.236,208.058 234.033,208.851 230.336 C 209.624 226.733,209.072 224.986,199.026 199.200 C 193.212 184.276,194.462 185.429,174.648 176.723 C 151.433 166.523,152.119 166.727,146.600 168.372 M328.658 198.445 C 351.287 205.419,358.174 234.579,341.121 251.214 C 337.509 254.738,334.689 256.521,313.600 268.614 C 302.930 274.732,288.980 282.737,282.600 286.402 C 266.469 295.669,266.819 295.478,263.849 296.596 C 258.554 298.589,255.800 297.523,255.800 293.478 C 255.800 290.310,257.246 287.758,270.464 267.600 C 276.739 258.030,286.346 243.270,291.814 234.800 C 312.051 203.448,313.661 201.125,316.311 199.461 C 319.649 197.364,323.991 197.007,328.658 198.445 " stroke="none" fill="#131313" fill-rule="evenodd"></path><path id="path3" d="M269.000 61.460 C 258.913 63.076,250.787 69.486,246.857 78.925 C 245.763 81.552,243.879 88.315,235.749 118.800 C 226.210 154.563,226.175 154.667,223.073 156.138 C 220.468 157.375,218.634 156.808,212.511 152.873 C 187.576 136.850,159.695 131.653,132.814 138.018 C 63.618 154.403,31.579 232.959,70.297 291.303 C 73.295 295.821,74.307 296.845,71.967 292.993 C 66.207 283.512,61.495 271.624,60.000 262.800 C 59.758 261.370,59.125 258.400,58.594 256.200 C 55.491 243.351,55.849 228.186,59.608 213.200 C 76.185 147.108,152.684 117.404,210.000 154.803 C 218.096 160.086,220.031 160.853,223.142 160.016 C 227.932 158.726,229.025 156.069,236.395 127.800 C 237.313 124.280,239.116 117.530,240.401 112.800 C 241.687 108.070,244.020 99.340,245.585 93.400 C 249.181 79.748,250.979 75.699,255.352 71.400 C 270.175 56.826,295.301 66.427,296.303 87.048 C 296.542 91.945,296.156 94.315,293.547 103.992 C 292.449 108.066,290.133 116.710,288.401 123.200 C 286.669 129.690,282.887 143.820,279.997 154.600 C 277.107 165.380,273.130 180.230,271.159 187.600 C 269.187 194.970,266.779 203.700,265.808 207.000 C 264.836 210.300,263.680 214.980,263.239 217.400 C 262.050 223.922,260.195 232.516,257.808 242.553 C 256.272 249.013,256.786 248.085,259.169 240.093 C 267.816 211.092,272.176 195.481,282.993 154.800 C 284.368 149.630,287.791 136.850,290.600 126.400 C 299.934 91.676,300.026 91.236,299.207 85.252 C 297.174 70.402,282.978 59.220,269.000 61.460 M316.777 106.779 C 313.457 107.787,312.573 109.397,309.831 119.426 C 288.822 196.265,284.308 215.069,286.672 215.885 C 288.628 216.560,294.223 208.657,322.275 165.600 C 334.958 146.132,336.721 143.150,337.967 139.054 C 342.170 125.236,334.328 110.488,320.919 106.996 C 318.399 106.339,318.252 106.332,316.777 106.779 M146.567 160.601 C 143.963 161.303,136.613 164.023,122.838 169.383 C 101.521 177.677,103.075 176.154,93.185 198.435 C 80.078 227.960,80.082 225.660,93.091 253.600 C 93.859 255.250,94.834 257.476,95.257 258.547 C 96.888 262.679,100.352 269.437,101.231 270.200 L 102.151 271.000 101.247 269.697 C 99.156 266.687,87.226 233.336,86.401 228.193 C 85.619 223.321,86.336 221.166,96.026 199.291 C 105.234 178.501,103.670 180.001,124.646 171.857 C 153.669 160.590,149.185 160.632,173.600 171.403 C 197.640 182.008,196.589 181.119,202.593 195.923 C 203.993 199.375,206.746 206.079,208.711 210.820 C 214.910 225.781,215.416 228.240,213.480 234.000 C 212.254 237.645,212.339 238.025,213.684 234.910 C 216.130 229.243,216.121 225.770,213.644 218.458 C 212.776 215.896,211.502 211.910,210.812 209.600 C 209.321 204.603,208.971 203.665,204.883 193.725 C 199.365 180.303,198.145 179.023,185.600 173.491 C 182.850 172.279,176.640 169.534,171.800 167.393 C 154.386 159.687,152.169 159.090,146.567 160.601 M319.800 203.121 C 316.434 204.707,311.606 211.770,291.994 243.800 C 280.760 262.148,280.376 262.856,286.028 254.800 C 291.095 247.578,298.835 237.053,300.001 235.800 C 300.616 235.140,301.879 233.340,302.810 231.800 C 309.719 220.364,317.561 208.838,319.648 207.051 C 326.078 201.548,339.517 210.879,342.594 222.984 C 345.351 233.832,340.316 244.084,328.736 251.200 C 326.408 252.630,322.326 255.285,319.664 257.100 C 315.093 260.217,310.320 263.288,302.300 268.273 C 300.375 269.469,298.800 270.538,298.800 270.648 C 298.800 270.757,298.935 270.767,299.100 270.669 C 299.265 270.570,302.550 268.786,306.400 266.704 C 332.581 252.541,334.488 251.400,338.099 247.734 C 347.813 237.869,348.793 223.037,340.460 212.000 C 335.111 204.915,325.114 200.619,319.800 203.121 " stroke="none" fill="#acacac" fill-rule="evenodd"></path><path id="path4" d="M271.305 59.087 C 271.914 59.179,272.814 59.177,273.305 59.082 C 273.797 58.987,273.300 58.911,272.200 58.914 C 271.100 58.917,270.697 58.995,271.305 59.087 M265.200 59.827 C 259.370 61.348,252.621 65.823,248.968 70.589 C 244.588 76.303,244.897 75.316,230.183 130.600 C 223.135 157.081,223.290 156.909,212.600 150.198 C 180.125 129.812,142.866 127.573,109.400 143.996 C 76.399 160.191,54.837 191.980,51.606 229.200 C 51.135 234.626,51.073 242.401,51.500 242.397 C 51.665 242.395,51.835 239.290,51.878 235.497 C 52.786 155.337,143.732 106.205,210.800 149.642 C 218.970 154.933,220.907 155.560,223.015 153.593 C 225.050 151.692,225.079 151.600,234.200 117.400 C 241.938 88.385,244.081 80.683,245.138 78.086 C 249.035 68.514,257.339 61.692,267.400 59.799 C 269.243 59.452,269.721 59.269,268.800 59.262 C 268.030 59.257,266.410 59.511,265.200 59.827 M275.105 59.483 C 275.602 59.579,276.322 59.575,276.705 59.475 C 277.087 59.375,276.680 59.296,275.800 59.301 C 274.920 59.305,274.607 59.387,275.105 59.483 M279.919 60.346 C 291.658 63.849,299.928 73.590,301.192 85.400 C 301.466 87.967,301.495 88.033,301.540 86.200 C 301.808 75.114,290.161 61.502,278.977 59.829 C 277.911 59.670,278.215 59.837,279.919 60.346 M301.108 92.060 C 300.791 95.398,299.849 99.155,292.203 127.600 C 289.395 138.050,285.514 152.540,283.579 159.800 C 281.644 167.060,278.534 178.670,276.667 185.600 C 271.505 204.761,270.759 207.692,270.988 207.922 C 271.105 208.038,271.200 208.021,271.200 207.884 C 271.200 207.747,273.374 199.572,276.032 189.717 C 280.334 173.762,283.101 163.442,291.990 130.200 C 293.343 125.140,295.782 116.050,297.409 110.000 C 300.821 97.319,301.701 93.203,301.526 90.753 C 301.423 89.316,301.347 89.552,301.108 92.060 M313.536 104.009 C 310.199 105.772,309.670 107.160,303.404 130.600 C 301.287 138.520,297.863 151.300,295.795 159.000 C 280.553 215.748,278.410 224.800,279.342 228.512 C 280.119 231.608,283.257 229.433,288.829 221.936 C 294.087 214.864,335.990 150.813,338.639 145.800 C 345.031 133.706,343.273 120.460,334.044 111.182 C 327.419 104.522,318.482 101.396,313.536 104.009 M324.783 107.220 C 336.306 112.531,342.420 125.204,339.464 137.649 C 338.169 143.102,337.737 143.839,319.208 172.200 C 291.376 214.799,287.378 220.400,284.804 220.400 C 282.240 220.400,283.794 212.498,293.541 176.000 C 312.314 105.702,311.503 108.403,314.400 106.462 C 316.503 105.052,320.754 105.363,324.783 107.220 M147.400 165.370 C 143.234 166.551,114.215 177.689,110.715 179.450 C 105.997 181.824,105.092 183.277,97.254 201.055 C 86.819 224.722,86.908 224.400,88.974 231.026 C 89.567 232.927,90.124 234.409,90.213 234.320 C 90.302 234.231,90.010 232.998,89.564 231.579 C 87.490 224.985,87.910 223.391,97.353 202.024 C 107.191 179.763,104.817 182.029,127.568 173.201 C 153.281 163.225,149.322 163.207,172.396 173.404 C 195.520 183.623,195.058 183.279,199.018 193.247 C 201.216 198.779,201.810 199.454,199.838 194.179 C 195.654 182.987,196.065 183.315,174.078 173.623 C 153.120 164.385,152.047 164.053,147.400 165.370 M331.600 202.122 C 331.600 202.217,332.780 202.985,334.223 203.828 C 339.858 207.124,345.013 213.938,347.061 220.800 C 347.554 222.450,347.967 223.518,347.979 223.173 C 348.116 219.162,342.651 209.858,337.901 206.014 C 335.719 204.249,331.600 201.705,331.600 202.122 M311.915 208.100 C 308.333 213.224,298.247 229.030,299.088 228.200 C 299.732 227.564,314.049 205.600,313.819 205.600 C 313.732 205.600,312.876 206.725,311.915 208.100 M348.150 228.600 C 348.151 231.020,348.216 231.958,348.296 230.685 C 348.376 229.412,348.375 227.432,348.294 226.285 C 348.214 225.138,348.149 226.180,348.150 228.600 M347.285 235.500 C 346.299 240.274,343.556 244.932,339.145 249.326 C 336.977 251.486,335.716 252.887,336.342 252.441 C 342.010 248.405,348.679 237.623,347.926 233.713 C 347.854 233.338,347.566 234.142,347.285 235.500 M51.728 245.200 C 51.728 246.630,51.801 247.215,51.889 246.500 C 51.978 245.785,51.978 244.615,51.889 243.900 C 51.801 243.185,51.728 243.770,51.728 245.200 M52.023 249.233 C 52.036 249.985,52.205 251.320,52.398 252.200 C 52.669 253.430,52.698 253.152,52.526 251.000 C 52.287 248.020,51.985 246.958,52.023 249.233 " stroke="none" fill="#626868" fill-rule="evenodd"></path><path id="path5" d="M265.764 57.368 C 256.845 59.401,248.528 65.797,244.347 73.837 C 242.171 78.023,241.136 81.102,238.424 91.458 C 237.321 95.670,235.442 102.690,234.247 107.058 C 233.053 111.426,231.416 117.520,230.609 120.600 C 221.656 154.758,222.283 153.745,213.516 148.240 C 141.352 102.924,49.207 152.925,49.200 237.402 C 49.195 321.146,143.224 372.000,213.322 326.164 C 238.144 309.934,251.122 290.414,260.638 255.000 C 262.293 248.840,264.703 240.020,265.992 235.400 C 268.405 226.759,269.013 224.520,274.145 205.400 C 275.799 199.240,279.040 187.180,281.348 178.600 C 283.656 170.020,286.356 159.940,287.348 156.200 C 289.375 148.554,296.878 120.569,300.002 109.000 C 304.773 91.331,305.091 85.348,301.713 76.800 C 296.192 62.831,280.058 54.110,265.764 57.368 M279.092 59.813 C 289.563 62.217,298.514 71.161,300.999 81.703 C 302.533 88.205,301.785 93.952,297.218 110.785 C 295.694 116.403,293.341 125.140,291.988 130.200 C 276.558 187.945,272.699 202.224,269.993 211.600 C 267.801 219.193,261.003 243.443,256.599 259.376 C 246.248 296.827,224.005 322.317,191.395 334.098 C 111.411 362.996,32.129 289.783,55.417 208.529 C 74.744 141.092,152.266 112.324,212.600 150.198 C 223.290 156.909,223.135 157.081,230.183 130.600 C 242.864 82.953,243.640 80.211,245.585 76.189 C 251.826 63.277,265.364 56.661,279.092 59.813 M313.455 101.786 C 308.946 103.393,308.450 104.570,301.803 129.400 C 299.683 137.320,296.349 149.740,294.396 157.000 C 292.442 164.260,289.939 173.620,288.833 177.800 C 287.727 181.980,286.190 187.740,285.417 190.600 C 275.398 227.689,274.055 236.100,278.153 236.100 C 282.207 236.100,283.199 234.716,324.244 171.800 C 345.064 139.886,346.713 135.657,343.194 123.200 C 339.268 109.302,323.738 98.120,313.455 101.786 M322.913 104.030 C 339.961 109.722,347.343 129.330,338.639 145.800 C 335.990 150.813,294.087 214.864,288.829 221.936 C 283.257 229.433,280.119 231.608,279.342 228.512 C 278.410 224.800,280.553 215.748,295.795 159.000 C 297.863 151.300,301.287 138.520,303.404 130.600 C 309.670 107.160,310.199 105.772,313.536 104.009 C 315.564 102.937,319.666 102.947,322.913 104.030 M146.200 166.221 C 145.100 166.522,139.970 168.406,134.800 170.408 C 129.630 172.409,122.545 175.148,119.055 176.494 C 105.722 181.638,107.041 179.868,93.508 210.780 C 86.787 226.131,86.708 225.144,96.772 251.743 C 104.276 271.574,103.209 270.299,117.857 276.937 C 149.961 291.485,146.828 290.958,163.400 284.598 C 193.474 273.056,192.902 273.376,196.555 266.078 C 198.239 262.715,207.628 241.312,210.102 235.200 C 212.848 228.412,212.294 225.501,204.810 207.400 C 203.900 205.200,201.807 200.070,200.158 196.000 C 194.821 182.822,196.140 183.897,172.432 173.420 C 153.565 165.082,151.961 164.642,146.200 166.221 M153.887 168.009 C 155.637 168.413,157.815 169.327,174.648 176.723 C 194.462 185.429,193.212 184.276,199.026 199.200 C 209.072 224.986,209.624 226.733,208.851 230.336 C 208.058 234.033,194.282 265.236,192.169 268.121 C 189.779 271.383,187.669 272.363,162.000 282.128 C 147.012 287.830,150.118 288.204,126.800 277.897 C 104.216 267.914,106.466 270.024,99.749 252.541 C 88.239 222.583,88.256 227.878,99.593 202.200 C 108.755 181.449,106.512 183.665,126.000 176.107 C 142.775 169.602,143.925 169.170,146.600 168.372 C 149.340 167.556,151.464 167.450,153.887 168.009 M319.000 198.094 C 314.439 199.734,314.510 199.639,291.814 234.800 C 286.346 243.270,276.739 258.030,270.464 267.600 C 257.246 287.758,255.800 290.310,255.800 293.478 C 255.800 297.523,258.554 298.589,263.849 296.596 C 266.819 295.478,266.469 295.669,282.600 286.402 C 288.980 282.737,302.930 274.732,313.600 268.614 C 334.689 256.521,337.509 254.738,341.121 251.214 C 356.756 235.962,352.641 210.060,333.000 200.101 C 328.615 197.878,322.172 196.954,319.000 198.094 M328.027 200.639 C 344.377 205.444,353.167 225.223,345.823 240.686 C 342.236 248.240,338.327 251.821,326.400 258.483 C 317.561 263.419,293.830 276.832,281.400 283.917 C 266.352 292.493,263.817 293.586,261.653 292.429 C 259.254 291.144,261.066 287.067,270.357 272.850 C 276.651 263.218,296.711 231.844,298.394 229.000 C 300.299 225.779,310.224 210.508,312.467 207.345 C 317.343 200.469,321.441 198.703,328.027 200.639 " stroke="none" fill="#325d5d" fill-rule="evenodd"></path><path id="path6" d="M267.400 59.773 C 257.229 61.781,249.030 68.526,245.138 78.086 C 244.081 80.683,241.938 88.385,234.200 117.400 C 222.617 160.830,224.362 158.426,210.800 149.642 C 155.251 113.666,77.943 141.071,57.288 204.062 C 30.041 287.155,109.112 363.826,191.395 334.098 C 224.005 322.317,246.248 296.827,256.599 259.376 C 257.629 255.649,260.513 245.310,263.007 236.400 C 265.501 227.490,268.185 217.725,268.971 214.700 C 272.278 201.971,273.443 197.566,276.667 185.600 C 278.534 178.670,281.472 167.690,283.195 161.200 C 284.919 154.710,287.592 144.720,289.134 139.000 C 301.429 93.412,301.250 94.160,301.256 88.393 C 301.276 70.562,284.517 56.395,267.400 59.773 M280.129 62.540 C 292.985 66.622,300.831 78.758,299.214 92.058 C 298.743 95.932,298.150 98.305,290.875 125.400 C 288.217 135.300,285.031 147.180,283.795 151.800 C 282.559 156.420,279.116 169.290,276.142 180.400 C 270.653 200.909,266.694 214.844,259.606 238.600 C 257.440 245.860,255.024 254.246,254.238 257.235 C 251.061 269.316,247.628 278.476,243.558 285.729 C 206.014 352.646,113.037 355.580,70.233 291.200 C 36.900 241.066,55.696 173.140,110.400 146.044 C 143.282 129.756,180.401 132.239,212.511 152.873 C 218.634 156.808,220.468 157.375,223.073 156.138 C 226.175 154.667,226.210 154.563,235.749 118.800 C 243.879 88.315,245.763 81.552,246.857 78.925 C 252.477 65.424,266.879 58.332,280.129 62.540 M314.400 106.462 C 311.503 108.403,312.314 105.702,293.541 176.000 C 283.794 212.498,282.240 220.400,284.804 220.400 C 287.378 220.400,291.376 214.799,319.208 172.200 C 334.071 149.451,336.495 145.590,337.879 142.461 C 342.851 131.218,339.515 117.654,329.969 110.301 C 324.545 106.122,317.499 104.385,314.400 106.462 M320.919 106.996 C 336.736 111.116,343.823 129.486,335.502 144.800 C 332.653 150.042,299.702 200.336,293.692 208.614 C 281.507 225.398,282.778 218.371,309.831 119.426 C 312.573 109.397,313.457 107.787,316.777 106.779 C 318.252 106.332,318.399 106.339,320.919 106.996 M145.800 163.967 C 142.878 164.832,135.938 167.425,122.248 172.767 C 104.036 179.874,105.105 178.792,96.026 199.291 C 83.500 227.571,83.615 222.527,94.787 253.600 C 101.977 273.597,101.063 272.544,117.600 279.920 C 151.029 294.833,146.032 294.208,167.172 286.122 C 198.294 274.218,194.904 277.100,205.223 253.764 C 216.778 227.631,216.597 229.853,208.711 210.820 C 206.746 206.079,203.993 199.375,202.593 195.923 C 196.589 181.119,197.640 182.008,173.600 171.403 C 153.648 162.601,151.951 162.147,145.800 163.967 M159.099 167.117 C 169.878 171.583,189.831 180.630,192.013 182.039 C 196.019 184.629,196.739 185.951,202.765 201.800 C 204.522 206.420,206.976 212.810,208.220 216.000 C 212.251 226.340,212.531 229.197,210.102 235.200 C 207.628 241.312,198.239 262.715,196.555 266.078 C 192.902 273.376,193.474 273.056,163.400 284.598 C 146.828 290.958,149.961 291.485,117.857 276.937 C 103.027 270.217,104.469 272.034,95.709 249.020 C 85.573 222.389,85.393 227.956,97.254 201.055 C 106.792 179.420,104.538 181.634,125.200 173.605 C 151.516 163.379,150.531 163.567,159.099 167.117 M319.923 200.536 C 317.039 201.617,315.430 203.356,310.981 210.200 C 309.265 212.840,304.895 219.500,301.269 225.000 C 297.644 230.500,290.596 241.390,285.606 249.200 C 280.616 257.010,273.769 267.630,270.390 272.800 C 261.065 287.069,259.251 291.143,261.653 292.429 C 263.894 293.628,266.069 292.650,284.600 282.108 C 292.740 277.478,306.330 269.777,314.800 264.995 C 343.090 249.024,348.000 243.616,348.000 228.428 C 348.000 212.728,331.399 196.236,319.923 200.536 M330.898 204.314 C 347.720 212.702,351.305 234.323,338.099 247.734 C 334.489 251.399,332.524 252.575,306.400 266.702 C 296.086 272.280,295.055 272.855,284.853 278.715 C 263.019 291.257,262.235 290.437,275.956 269.416 C 279.610 263.819,286.470 252.896,291.200 245.143 C 305.470 221.755,313.943 208.596,316.712 205.526 C 320.088 201.780,324.980 201.363,330.898 204.314 " stroke="none" fill="#547c7c" fill-rule="evenodd"></path></g></svg>