<?xml version="1.0" standalone="no"?>
<!DOCTYPE svg PUBLIC "-//W3C//DTD SVG 20010904//EN"
 "http://www.w3.org/TR/2001/REC-SVG-20010904/DTD/svg10.dtd">
<svg version="1.0" xmlns="http://www.w3.org/2000/svg"
 width="300.000000pt" height="400.000000pt" viewBox="0 0 300.000000 400.000000"
 preserveAspectRatio="xMidYMid meet">

<g transform="translate(0.000000,400.000000) scale(0.100000,-0.100000)"
fill="#000000" stroke="none">
<path d="M1372 3909 c57 -51 106 -95 110 -98 12 -10 -237 -70 -271 -66 -17 2
-31 1 -31 -3 0 -5 -12 -7 -27 -7 -16 1 -32 -1 -37 -3 -5 -3 -23 -6 -40 -8 -17
-2 -60 -6 -96 -10 -36 -3 -93 -6 -127 -6 -35 0 -63 -3 -63 -8 0 -6 -11 -5 -27
1 -19 7 -28 7 -34 -2 -10 -17 -46 -21 -70 -9 -13 7 -19 7 -19 0 0 -5 -7 -10
-16 -10 -8 0 -13 4 -10 9 3 5 -5 8 -18 7 -14 0 -22 -6 -19 -13 6 -16 -19 -17
-34 -2 -8 8 -17 8 -32 0 -14 -8 -21 -8 -21 -1 0 5 -7 10 -15 10 -8 0 -15 -4
-15 -10 0 -5 5 -10 12 -10 6 0 8 -3 5 -6 -4 -4 -12 -2 -19 4 -15 12 -108 6
-122 -8 -16 -16 -73 -12 -80 5 -3 8 -11 15 -18 14 -10 0 -10 -2 0 -6 6 -2 10
-9 6 -14 -8 -13 -52 -11 -57 4 -4 9 -6 9 -6 0 -1 -8 -11 -11 -31 -6 -20 4 -30
2 -30 -7 0 -7 7 -10 16 -6 8 3 12 2 9 -4 -3 -5 -37 -8 -75 -6 l-70 3 0 -99 0
-100 38 6 c37 6 395 49 552 66 47 5 105 12 130 15 l45 6 -43 -20 c-23 -11 -58
-23 -77 -27 -59 -11 -82 -37 -110 -125 -14 -44 -25 -100 -25 -124 0 -32 -5
-47 -17 -53 -17 -9 -98 -19 -218 -28 -84 -6 -249 -25 -262 -29 -10 -3 -13
-162 -13 -748 l0 -744 23 -12 22 -11 -22 6 -23 5 0 -810 0 -811 325 0 325 0 0
25 c0 14 8 29 19 35 31 16 37 12 13 -10 -12 -12 -22 -27 -22 -35 0 -13 43 -15
285 -15 245 0 285 2 285 15 0 19 17 19 36 0 9 -8 21 -15 27 -15 8 0 7 4 -1 12
-7 7 -12 25 -12 40 0 15 -4 28 -10 28 -5 0 -10 -9 -10 -20 0 -12 -5 -17 -13
-14 -21 7 -9 75 14 81 11 3 19 11 19 18 0 7 7 19 17 26 15 13 16 11 10 -24 -4
-28 -2 -37 9 -37 10 0 14 -14 14 -55 l0 -55 835 0 835 0 0 519 c0 516 0 520
-24 623 -21 86 -66 322 -66 342 0 3 20 6 45 6 l45 0 0 95 0 95 -54 0 -54 0 -9
53 c-5 28 -9 53 -8 55 1 1 24 4 51 6 27 2 55 4 62 5 9 1 12 30 12 111 l0 110
-70 0 c-48 0 -72 4 -75 13 -2 6 -6 44 -10 84 l-6 72 78 3 c65 3 78 6 81 21 3
16 -4 17 -82 11 l-86 -7 0 52 c0 51 0 51 33 51 61 0 137 13 137 23 0 6 -33 8
-90 5 l-90 -5 -4 31 c-3 17 -7 46 -9 64 l-4 32 52 0 c90 0 145 11 145 29 0 9
-34 48 -77 88 l-78 72 65 1 c61 0 102 12 89 25 -4 3 -43 1 -88 -4 -80 -9 -82
-8 -110 18 -24 22 -32 46 -59 167 -17 77 -36 153 -42 169 -6 15 -9 29 -8 30 2
2 62 8 133 14 143 13 175 19 175 33 0 6 -21 7 -52 3 -29 -3 -101 -9 -159 -13
l-107 -7 -17 55 c-9 30 -34 92 -55 137 l-38 81 32 7 c17 3 56 10 86 15 45 7
39 8 -36 4 l-91 -5 -57 85 c-71 106 -138 177 -200 208 l-47 24 193 22 c106 13
273 32 371 44 l177 21 0 89 c0 72 -3 88 -15 88 -8 0 -15 -7 -15 -16 0 -9 -7
-14 -17 -13 -10 2 -31 0 -48 -4 -16 -4 -66 -9 -110 -12 -101 -7 -181 -14 -220
-21 -16 -2 -53 -6 -82 -8 -29 -3 -57 -8 -64 -11 -6 -4 -56 -7 -110 -7 -55 0
-97 -2 -95 -6 2 -4 -30 -8 -72 -9 -43 -1 -92 -4 -109 -6 -18 -2 -33 -1 -33 2
0 6 -20 6 -63 2 -5 -1 -6 -4 -4 -8 3 -5 -11 -9 -31 -9 -21 -1 -84 -5 -142 -10
-115 -8 -207 -9 -230 -3 -8 2 -14 -2 -13 -8 2 -7 0 -13 -3 -13 -3 0 -55 43
-116 95 -60 52 -116 95 -124 95 -8 0 32 -41 88 -91z m-842 -239 c0 -5 -5 -10
-11 -10 -5 0 -7 5 -4 10 3 6 8 10 11 10 2 0 4 -4 4 -10z m-175 -600 c3 -6 -1
-7 -9 -4 -18 7 -21 14 -7 14 6 0 13 -4 16 -10z m830 -117 c14 -21 25 -41 25
-45 0 -11 -28 -10 -35 2 -4 6 1 7 11 3 14 -5 15 -3 4 17 -10 18 -14 20 -22 9
-7 -10 -7 -8 -3 9 4 13 2 22 -4 22 -6 0 -11 5 -11 10 0 18 9 11 35 -27z m146
-8 l10 -20 -16 20 c-9 11 -21 19 -26 18 -11 -3 -12 11 -2 20 7 7 16 -3 34 -38z
m64 25 c3 -6 -1 -7 -9 -4 -18 7 -21 14 -7 14 6 0 13 -4 16 -10z m-157 -35 c-3
-3 -9 2 -12 12 -6 14 -5 15 5 6 7 -7 10 -15 7 -18z m-148 5 c0 -5 -4 -10 -10
-10 -5 0 -10 5 -10 10 0 6 5 10 10 10 6 0 10 -4 10 -10z m190 -35 c0 -11 -29
-11 -33 -1 -4 10 1 12 14 9 10 -3 19 -7 19 -8z m75 5 c3 -5 1 -10 -4 -10 -6 0
-11 5 -11 10 0 6 2 10 4 10 3 0 8 -4 11 -10z m-28 -6 c-3 -3 -12 -4 -19 -1 -8
3 -5 6 6 6 11 1 17 -2 13 -5z m-39 -298 c23 -35 83 -103 134 -151 51 -49 88
-90 83 -92 -6 -2 -25 -12 -43 -23 -39 -24 -34 -47 6 -26 63 32 87 30 149 -12
32 -22 87 -54 123 -71 l65 -32 -52 4 c-29 2 -53 0 -53 -4 0 -5 -6 -6 -12 -4
-7 3 -26 1 -43 -4 -16 -5 -24 -10 -16 -10 8 -1 -5 -15 -27 -31 -43 -31 -53
-44 -27 -34 11 5 15 -1 15 -21 l0 -27 33 28 c27 22 33 24 35 11 3 -14 7 -15
24 -6 29 16 37 0 11 -21 -22 -17 -22 -20 -8 -53 8 -19 12 -37 9 -40 -10 -10
83 -19 117 -12 39 9 95 63 115 111 14 34 20 35 52 11 10 -8 9 -15 -3 -33 -18
-28 -10 -31 18 -6 20 17 20 16 14 -108 -4 -69 -10 -219 -13 -333 l-7 -209 -51
-37 c-149 -108 -415 -231 -501 -231 -58 0 -151 42 -273 124 -99 67 -147 123
-214 252 -65 126 -151 324 -144 332 3 2 17 -3 31 -12 23 -15 22 -11 -13 41
-39 58 -82 136 -82 149 0 4 12 -3 28 -17 15 -14 36 -32 47 -40 19 -14 19 -13
2 13 -21 34 -22 54 -1 62 26 10 34 7 34 -14 0 -18 3 -19 20 -10 14 7 26 8 38
1 13 -8 14 -10 2 -11 -33 -1 -42 -15 -28 -46 17 -39 37 -53 76 -54 43 0 95 27
88 45 -3 8 0 17 5 21 6 3 8 17 4 31 -4 16 -2 22 5 18 22 -14 8 14 -15 29 -14
9 -24 22 -22 28 3 16 -37 26 -106 27 -32 1 -68 6 -79 12 -15 8 -19 8 -14 0 5
-7 -2 -11 -16 -11 -23 -1 -58 -21 -58 -34 0 -4 9 -2 21 4 33 18 32 6 -2 -19
l-30 -22 3 82 3 83 50 25 c37 18 71 26 132 29 45 2 90 1 100 -4 10 -4 23 -8
29 -9 7 0 29 -23 50 -51 67 -87 104 -129 104 -116 0 7 -11 40 -25 74 -14 34
-25 62 -25 63 0 0 35 -33 78 -75 69 -68 245 -200 287 -217 13 -4 8 9 -15 48
-31 53 -69 131 -176 359 -46 100 -95 243 -93 275 0 5 9 -10 19 -35 25 -59 25
-38 1 39 -10 34 -18 61 -16 61 1 0 21 -29 43 -64z m1615 -62 c26 -23 47 -44
47 -46 0 -2 -15 -2 -32 0 -18 2 -52 -1 -75 -6 -40 -9 -43 -8 -43 10 0 19 5 20
55 16 53 -4 54 -4 39 13 -11 12 -22 16 -31 11 -8 -5 -27 -7 -42 -4 -24 3 -30
10 -35 40 -3 21 -6 45 -6 56 0 19 3 17 123 -90z m-1997 -81 c77 -105 124 -172
124 -176 0 -1 -37 -3 -83 -3 -56 -1 -101 -8 -141 -23 -33 -12 -61 -20 -62 -18
-3 2 5 59 28 211 7 46 13 64 19 55 5 -8 7 -27 4 -44 -2 -16 4 -4 15 29 11 32
17 62 14 67 -3 5 -3 9 -1 9 2 0 40 -48 83 -107z m1234 18 c0 -5 -7 -17 -16
-25 -14 -15 -34 -21 -34 -12 0 2 -3 11 -6 19 -3 10 2 17 13 20 31 8 43 7 43
-2z m-133 -53 c-3 -7 -5 -2 -5 12 0 14 2 19 5 13 2 -7 2 -19 0 -25z m-377 -33
c24 -13 24 -14 4 -15 -12 0 -27 7 -34 15 -16 19 -3 19 30 0z m167 -94 c51 -22
102 -42 115 -45 64 -11 98 -49 98 -107 0 -24 -6 -24 -38 2 -25 20 -25 21 -4
15 12 -4 22 -3 22 2 0 12 -49 22 -106 22 -36 0 -54 8 -111 51 -157 118 -150
137 24 60z m620 -29 c19 -12 41 -85 54 -178 11 -82 10 -86 -15 -137 -14 -29
-46 -72 -71 -97 l-45 -44 0 93 c0 82 2 92 15 81 18 -15 19 -42 3 -58 -16 -16
17 -28 36 -13 33 28 22 103 -21 146 -16 17 -16 17 7 10 14 -4 33 -14 43 -23 9
-8 17 -11 17 -6 0 18 -44 47 -72 48 -19 1 -28 6 -28 17 0 14 5 15 56 2 31 -8
58 -12 61 -10 8 9 -26 115 -44 132 -10 11 -24 14 -39 11 -23 -6 -34 11 -17 27
9 9 45 9 60 -1z m13 -119 c0 -20 -5 -23 -35 -23 -27 0 -35 4 -34 18 0 11 2 12
6 4 7 -17 43 14 43 37 0 14 2 14 10 1 5 -8 10 -25 10 -37z m-685 -104 c-4 13
-3 22 1 19 5 -2 21 -10 36 -17 24 -12 30 -12 46 2 25 23 35 21 21 -4 -8 -15
-8 -19 0 -15 6 4 11 1 11 -7 0 -11 -19 -17 -71 -22 -38 -4 -72 -6 -73 -4 -2 2
-7 20 -11 39 l-7 35 27 -25 27 -25 -7 24z m155 12 c0 -5 -7 -11 -14 -14 -10
-4 -13 -1 -9 9 6 15 23 19 23 5z m-874 -83 c-3 -32 -5 -33 -50 -36 -52 -3 -76
9 -76 40 0 19 1 19 21 -3 l20 -24 -6 23 c-7 25 7 29 25 7 17 -20 27 -19 47 5
23 26 23 26 19 -12z m1907 -135 c-13 -2 -33 -2 -45 0 -13 2 -3 4 22 4 25 0 35
-2 23 -4z m-2780 -260 c-7 -2 -19 -2 -25 0 -7 3 -2 5 12 5 14 0 19 -2 13 -5z
m505 -10 c-10 -2 -26 -2 -35 0 -10 3 -2 5 17 5 19 0 27 -2 18 -5z m-110 -10
c-10 -2 -28 -2 -40 0 -13 2 -5 4 17 4 22 1 32 -1 23 -4z m-181 -10 c-20 -2
-52 -2 -70 0 -17 2 0 4 38 4 39 0 53 -2 32 -4z m1567 -285 c9 -12 16 -27 16
-33 -1 -5 -7 1 -15 15 -7 14 -24 28 -37 31 -22 7 -22 7 -1 8 12 1 29 -9 37
-21z m-75 8 c-2 -2 -15 -9 -29 -15 -24 -11 -24 -11 -6 3 16 13 49 24 35 12z
m70 -50 c26 -28 53 -140 41 -171 -9 -23 -114 -125 -177 -174 -23 -17 -65 -39
-93 -47 -62 -18 -69 -33 -77 -163 -5 -69 -3 -92 5 -87 8 5 10 1 5 -11 -12 -33
-94 -117 -137 -140 l-41 -23 35 28 c47 37 130 124 130 136 0 6 -15 -7 -32 -29
-18 -22 -44 -48 -58 -60 -14 -11 -48 -44 -77 -73 l-52 -53 6 38 c3 21 14 79
26 128 23 101 28 263 13 427 l-9 97 34 21 c19 11 93 50 164 87 187 95 254 111
294 69z m58 -223 c-4 -27 -7 -124 -9 -218 -1 -93 -3 -198 -6 -231 l-4 -61 -90
-79 c-91 -80 -240 -195 -245 -191 -1 2 4 41 12 88 19 110 41 405 35 449 -4 21
-11 34 -19 32 -30 -6 3 17 44 31 63 22 129 70 210 153 39 40 72 72 74 73 2 1
1 -20 -2 -46z m-596 -16 c-6 -6 -11 -25 -11 -41 0 -38 25 -172 39 -209 12 -32
13 -113 2 -172 -6 -34 -8 -24 -15 65 -4 58 -14 123 -22 145 -7 22 -14 52 -14
68 0 15 -4 27 -10 27 -6 0 -10 -35 -10 -86 0 -48 -5 -105 -11 -128 -28 -109
-57 -177 -101 -240 l-48 -69 0 36 c0 20 5 48 11 64 6 15 24 78 40 138 16 61
47 165 69 232 22 67 40 134 40 149 0 15 10 39 23 52 l22 24 3 -22 c2 -12 -1
-27 -7 -33z m254 -317 c-4 -34 -9 -59 -12 -57 -2 3 -1 33 3 66 4 34 9 60 11
57 3 -3 2 -32 -2 -66z m-973 -2 c-46 -67 -97 -175 -128 -270 -29 -90 -44 -113
-24 -37 27 104 92 244 148 317 35 46 38 40 4 -10z m728 -229 c-9 -40 -18 -59
-28 -59 -10 0 -12 4 -4 13 5 6 16 38 23 70 18 75 25 53 9 -24z m219 -35 c-20
-20 -116 -50 -127 -39 -4 4 58 42 106 65 44 22 55 8 21 -26z m1261 31 c0 -2
-15 -12 -32 -21 -18 -9 -53 -37 -77 -63 l-43 -46 27 43 c30 46 125 112 125 87z
m-1997 -115 c-28 -28 -57 -50 -64 -50 -15 0 -12 4 56 59 67 55 71 51 8 -9z
m2007 15 c0 -8 -4 -15 -9 -15 -13 0 -22 16 -14 24 11 11 23 6 23 -9z m-1750
-20 c0 -8 -4 -15 -10 -15 -5 0 -7 7 -4 15 4 8 8 15 10 15 2 0 4 -7 4 -15z
m484 -62 c-7 -31 -11 -59 -9 -62 3 -2 13 4 24 13 14 13 103 44 128 46 1 0 -7
-16 -18 -35 -12 -19 -26 -35 -32 -35 -7 0 -35 -11 -63 -24 l-52 -24 -71 78
c-50 55 -66 79 -54 79 10 0 34 4 53 9 19 6 51 10 71 11 l36 1 -13 -57z m-1117
15 c-3 -7 -5 -2 -5 12 0 14 2 19 5 13 2 -7 2 -19 0 -25z m-10 -65 c-3 -10 -5
-4 -5 12 0 17 2 24 5 18 2 -7 2 -21 0 -30z m843 -18 c0 -14 -4 -25 -9 -25 -4
0 -6 11 -3 25 2 14 6 25 8 25 2 0 4 -11 4 -25z m47 3 c-3 -8 -6 -5 -6 6 -1 11
2 17 5 13 3 -3 4 -12 1 -19z m132 -102 c-2 -2 -19 -11 -36 -20 l-33 -17 0 29
c0 16 -3 51 -6 78 l-7 49 43 -58 c23 -32 40 -60 39 -61z m-470 40 c-9 -8 -10
-7 -5 7 3 10 7 24 7 30 1 7 3 4 6 -7 3 -10 -1 -23 -8 -30z m1 -30 c0 -2 -8
-10 -17 -17 -16 -13 -17 -12 -4 4 13 16 21 21 21 13z m947 -48 c-3 -8 -6 -5
-6 6 -1 11 2 17 5 13 3 -3 4 -12 1 -19z"/>
<path d="M1281 2504 c0 -11 3 -14 6 -6 3 7 2 16 -1 19 -3 4 -6 -2 -5 -13z"/>
<path d="M1165 1680 c3 -5 8 -10 11 -10 2 0 4 5 4 10 0 6 -5 10 -11 10 -5 0
-7 -4 -4 -10z"/>
<path d="M1505 1470 c-3 -5 -2 -10 4 -10 5 0 13 5 16 10 3 6 2 10 -4 10 -5 0
-13 -4 -16 -10z"/>
<path d="M1264 1455 c11 -8 34 -15 50 -14 26 0 28 2 11 8 -11 4 -33 11 -50 15
-28 6 -29 5 -11 -9z"/>
<path d="M1448 1453 c7 -3 16 -2 19 1 4 3 -2 6 -13 5 -11 0 -14 -3 -6 -6z"/>
<path d="M2430 2015 c-7 -9 -11 -18 -8 -20 3 -3 11 1 18 10 7 9 11 18 8 20 -3
3 -11 -1 -18 -10z"/>
<path d="M2793 3403 c9 -2 23 -2 30 0 6 3 -1 5 -18 5 -16 0 -22 -2 -12 -5z"/>
<path d="M0 3159 c0 -5 9 -9 20 -9 11 0 20 2 20 4 0 2 -9 6 -20 9 -11 3 -20 1
-20 -4z"/>
</g>
</svg>
